# xmcd CD database file
#
# Track frame offsets:
#	150
#	22014
#	42152
#	64074
#
# Disc length: 1124 seconds
#
# Revision: 3
# Processed by: cddbd v1.5.2PL0 Copyright (c) Steve Scherf et al.
# Submitted via: CDex 1.70beta3
#
DISCID=2e046204
DTITLE=やなぎなぎ - ビードロ模様
DYEAR=2012
DGENRE=Anime
TTITLE0=ビードロ模様
TTITLE1=concent
TTITLE2=ビードロ模様（instrumental）
TTITLE3=concent（instrumental）
EXTD=YEAR: 2012
EXTT0=
EXTT1=
EXTT2=
EXTT3=
PLAYORDER=
